<svg aria-hidden="true" style="position: absolute; width: 0; height: 0; overflow: hidden;" version="1.1" xmlns="http://www.w3.org/2000/svg" xmlns:xlink="http://www.w3.org/1999/xlink">
<defs>
<symbol id="icon-mail" viewBox="0 0 20 20">
<title>mail</title>
<path d="M1.574 5.286c0.488 0.262 7.248 3.894 7.5 4.029s0.578 0.199 0.906 0.199c0.328 0 0.654-0.064 0.906-0.199s7.012-3.767 7.5-4.029c0.489-0.263 0.951-1.286 0.054-1.286h-16.919c-0.897 0-0.435 1.023 0.053 1.286zM18.613 7.489c-0.555 0.289-7.387 3.849-7.727 4.027s-0.578 0.199-0.906 0.199-0.566-0.021-0.906-0.199-7.133-3.739-7.688-4.028c-0.39-0.204-0.386 0.035-0.386 0.219s0 7.293 0 7.293c0 0.42 0.566 1 1 1h16c0.434 0 1-0.58 1-1 0 0 0-7.108 0-7.292s0.004-0.423-0.387-0.219z"></path>
</symbol>
<symbol id="icon-phone" viewBox="0 0 20 20">
<title>phone</title>
<path d="M11.229 11.229c-1.583 1.582-3.417 3.096-4.142 2.371-1.037-1.037-1.677-1.941-3.965-0.102-2.287 1.838-0.53 3.064 0.475 4.068 1.16 1.16 5.484 0.062 9.758-4.211 4.273-4.274 5.368-8.598 4.207-9.758-1.005-1.006-2.225-2.762-4.063-0.475s-0.936 2.927 0.103 3.965c0.722 0.725-0.791 2.559-2.373 4.142z"></path>
</symbol>
<symbol id="icon-facebook" viewBox="0 0 20 20">
<title>facebook</title>
<path d="M17 1h-14c-1.1 0-2 0.9-2 2v14c0 1.101 0.9 2 2 2h7v-7h-2v-2.475h2v-2.050c0-2.164 1.212-3.684 3.766-3.684l1.803 0.002v2.605h-1.197c-0.994 0-1.372 0.746-1.372 1.438v1.69h2.568l-0.568 2.474h-2v7h4c1.1 0 2-0.899 2-2v-14c0-1.1-0.9-2-2-2z"></path>
</symbol>
<symbol id="icon-google" viewBox="0 0 20 20">
<title>google</title>
<path d="M1.989 5.589c0 1.494 0.499 2.572 1.482 3.205 0.806 0.52 1.74 0.598 2.226 0.598 0.118 0 0.213-0.006 0.279-0.010 0 0-0.154 1.004 0.59 1.996h-0.034c-1.289 0-5.493 0.269-5.493 3.727 0 3.516 3.861 3.695 4.636 3.695 0.061 0 0.097-0.002 0.097-0.002 0.008 0 0.063 0.002 0.158 0.002 0.497 0 1.782-0.062 2.975-0.643 1.548-0.75 2.333-2.059 2.333-3.885 0-1.764-1.196-2.814-2.069-3.582-0.533-0.469-0.994-0.873-0.994-1.266 0-0.4 0.337-0.701 0.762-1.082 0.689-0.615 1.339-1.492 1.339-3.15 0-1.457-0.189-2.436-1.354-3.057 0.121-0.062 0.551-0.107 0.763-0.137 0.631-0.086 1.554-0.184 1.554-0.699v-0.099h-4.599c-0.046 0.002-4.651 0.172-4.651 4.389zM9.413 14.602c0.088 1.406-1.115 2.443-2.922 2.574-1.835 0.135-3.345-0.691-3.433-2.096-0.043-0.676 0.254-1.336 0.835-1.863 0.589-0.533 1.398-0.863 2.278-0.928 0.104-0.006 0.207-0.012 0.31-0.012 1.699 0.001 2.849 0.999 2.932 2.325zM8.212 4.626c0.451 1.588-0.23 3.246-1.316 3.553-0.125 0.035-0.253 0.052-0.384 0.052-0.994 0-1.979-1.006-2.345-2.393-0.204-0.776-0.187-1.458 0.047-2.112 0.229-0.645 0.643-1.078 1.163-1.225 0.125-0.035 0.254-0.053 0.385-0.053 1.2 0 1.972 0.498 2.45 2.178zM16 8v-3h-2v3h-3v2h3v3h2v-3h3v-2h-3z"></path>
</symbol>
<symbol id="icon-tumblr" viewBox="0 0 20 20">
<title>tumblr</title>
<path d="M15.6 18.196c-0.777 0.371-1.48 0.631-2.109 0.781-0.63 0.148-1.311 0.223-2.043 0.223-0.831 0-1.566-0.107-2.205-0.318-0.639-0.213-1.183-0.516-1.635-0.908-0.451-0.395-0.764-0.812-0.938-1.254s-0.261-1.086-0.261-1.926v-6.455h-2.009v-2.604c0.714-0.234 1.326-0.57 1.835-1.010 0.51-0.438 0.918-0.965 1.227-1.58 0.308-0.613 0.519-1.396 0.636-2.345h2.585v4.652h4.314v2.887h-4.314v4.719c0 1.066 0.056 1.752 0.168 2.055 0.111 0.303 0.319 0.545 0.622 0.725 0.403 0.244 0.863 0.367 1.381 0.367 0.92 0 1.836-0.303 2.746-0.908v2.899z"></path>
</symbol>
<symbol id="icon-twitter" viewBox="0 0 20 20">
<title>twitter</title>
<path d="M17.316 6.246c0.008 0.162 0.011 0.326 0.011 0.488 0 4.99-3.797 10.742-10.74 10.742-2.133 0-4.116-0.625-5.787-1.697 0.296 0.035 0.596 0.053 0.9 0.053 1.77 0 3.397-0.604 4.688-1.615-1.651-0.031-3.046-1.121-3.526-2.621 0.23 0.043 0.467 0.066 0.71 0.066 0.345 0 0.679-0.045 0.995-0.131-1.727-0.348-3.028-1.873-3.028-3.703 0-0.016 0-0.031 0-0.047 0.509 0.283 1.092 0.453 1.71 0.473-1.013-0.678-1.68-1.832-1.68-3.143 0-0.691 0.186-1.34 0.512-1.898 1.861 2.285 4.644 3.787 7.781 3.945-0.064-0.277-0.097-0.564-0.097-0.861 0-2.084 1.689-3.773 3.774-3.773 1.086 0 2.067 0.457 2.756 1.191 0.859-0.17 1.667-0.484 2.397-0.916-0.282 0.881-0.881 1.621-1.66 2.088 0.764-0.092 1.49-0.293 2.168-0.594-0.506 0.758-1.146 1.422-1.884 1.953z"></path>
</symbol>
<symbol id="icon-youtube" viewBox="0 0 20 20">
<title>youtube</title>
<path d="M10 2.3c-9.828 0-10 0.874-10 7.7s0.172 7.7 10 7.7 10-0.874 10-7.7-0.172-7.7-10-7.7zM13.205 10.334l-4.49 2.096c-0.393 0.182-0.715-0.022-0.715-0.456v-3.948c0-0.433 0.322-0.638 0.715-0.456l4.49 2.096c0.393 0.184 0.393 0.484 0 0.668z"></path>
</symbol>
</defs>
</svg>
